<?xml version="1.0" encoding="UTF-8" standalone="no"?>
<!-- Created with Inkscape (http://www.inkscape.org/) -->

<svg
   xmlns:dc="http://purl.org/dc/elements/1.1/"
   xmlns:cc="http://creativecommons.org/ns#"
   xmlns:rdf="http://www.w3.org/1999/02/22-rdf-syntax-ns#"
   xmlns:svg="http://www.w3.org/2000/svg"
   xmlns="http://www.w3.org/2000/svg"
   version="1.1"
   width="240"
   height="240"
   id="svg3135">
  <metadata
     id="metadata3141">
    <rdf:RDF>
      <cc:Work
         rdf:about="">
        <dc:format>image/svg+xml</dc:format>
        <dc:type
           rdf:resource="http://purl.org/dc/dcmitype/StillImage" />
        <dc:title></dc:title>
      </cc:Work>
    </rdf:RDF>
  </metadata>
  <defs
     id="defs3139" />
  <g
     transform="translate(1.0169476,-5.0847458)"
     id="g3145">
    <path
       d="m 120.5,203 -22.5,0 0,-4 0,-4 -7.5,0 -7.5,0 0,-3.5 0,-3.5 -7.5,0 -7.5,0 0,-4 0,-4 -4,0 -4,0 0,-3.5 0,-3.5 -3.5,0 -3.5,0 0,-7.5 0,-7.5 -7.5,0 -7.5,0 0,-15 0,-15 -4,0 -4,0 0,-15 0,-15 -3.5,0 -3.5,0 0,3.5 0,3.5 -4,0 -4,0 0,-7.5 0,-7.5 4,0 4,0 0,-3.5 0,-3.5 3.5,0 3.5,0 0,-4 0,-4 4,0 4,0 0,-3.5 0,-3.5 3.5,0 3.5,0 0,-4 0,-4 -3.5,0 -3.5,0 0,-3.5 0,-3.5 -4,0 -4,0 0,-4 0,-4 64,0 64,0 0,4 0,4 7.5,0 7.5,0 0,3.5 0,3.5 3.5,0 3.5,0 0,4 0,4 4,0 4,0 0,3.5 0,3.5 3.5,0 3.5,0 0,7.5 0,7.5 4,0 4,0 0,30 0,30 -4,0 -4,0 0,4 0,4 -3.5,0 -3.5,0 0,7.5 0,7.5 -4,0 -4,0 0,3.5 0,3.5 -3.5,0 -3.5,0 0,4 0,4 -7.5,0 -7.5,0 0,3.5 0,3.5 -7.5,0 -7.5,0 0,4 0,4 -22.5,0 z M 79,165 l 4,0 0,-15 0,-15 -4,0 -4,0 0,15 0,15 4,0 z m 82.5,0 3.5,0 0,-15 0,-15 -3.5,0 -3.5,0 0,15 0,15 3.5,0 z M 94,143 l 4,0 0,-4 0,-4 -4,0 -4,0 0,4 0,4 4,0 z m 52.5,0 3.5,0 0,-4 0,-4 -3.5,0 -3.5,0 0,4 0,4 3.5,0 z"
       id="path3165"
       style="fill:#fbdcca" />
    <path
       d="m 120.5,203 -22.5,0 0,-4 0,-4 -7.5,0 -7.5,0 0,-3.5 0,-3.5 -7.5,0 -7.5,0 0,-4 0,-4 -4,0 -4,0 0,-3.5 0,-3.5 -3.5,0 -3.5,0 0,-7.5 0,-7.5 -7.5,0 -7.5,0 0,-15 0,-15 -4,0 -4,0 0,-15 0,-15 -3.5,0 -3.5,0 0,3.5 0,3.5 -4,0 -4,0 0,-7.5 0,-7.5 4,0 4,0 0,-3.5 0,-3.5 3.5,0 3.5,0 0,-4 0,-4 4,0 4,0 0,-3.5 0,-3.5 3.5,0 3.5,0 0,-4 0,-4 -3.5,0 -3.5,0 0,-3.5 0,-3.5 -4,0 -4,0 0,-4 0,-4 64,0 64,0 0,4 0,4 7.5,0 7.5,0 0,3.5 0,3.5 3.5,0 3.5,0 0,4 0,4 4,0 4,0 0,3.5 0,3.5 3.5,0 3.5,0 0,7.5 0,7.5 4,0 4,0 0,30 0,30 -4,0 -4,0 0,4 0,4 -3.5,0 -3.5,0 0,7.5 0,7.5 -4,0 -4,0 0,3.5 0,3.5 -3.5,0 -3.5,0 0,4 0,4 -7.5,0 -7.5,0 0,3.5 0,3.5 -7.5,0 -7.5,0 0,4 0,4 -22.5,0 z m -11.5,-15 4,0 0,-4 0,-4 7.5,0 7.5,0 0,4 0,4 3.5,0 3.5,0 0,-4 0,-4 7.5,0 7.5,0 0,-3.5 0,-3.5 7.5,0 7.5,0 0,-4 0,-4 4,0 4,0 0,-11 0,-11 -4,0 -4,0 0,-4 0,-4 -3.5,0 -3.5,0 0,15 0,15 -7.5,0 -7.5,0 0,-11 0,-11 3.5,0 3.5,0 0,-4 0,-4 -3.5,0 -3.5,0 0,-7.5 0,-7.5 -4,0 -4,0 0,-3.5 0,-3.5 -3.5,0 -3.5,0 0,-7.5 0,-7.5 -4,0 -4,0 0,3.5 0,3.5 -3.5,0 -3.5,0 0,7.5 0,7.5 -4,0 -4,0 0,4 0,4 -3.5,0 -3.5,0 0,-15 0,-15 -4,0 -4,0 0,3.5 0,3.5 -3.5,0 -3.5,0 0,4 0,4 -4,0 -4,0 0,3.5 0,3.5 -3.5,0 -3.5,0 0,4 0,4 15,0 15,0 0,3.5 0,3.5 -4,0 -4,0 0,4 0,4 4,0 4,0 0,11 0,11 -7.5,0 -7.5,0 0,-15 0,-15 -4,0 -4,0 0,4 0,4 -3.5,0 -3.5,0 0,11 0,11 3.5,0 3.5,0 0,4 0,4 7.5,0 7.5,0 0,3.5 0,3.5 7.5,0 7.5,0 0,4 0,4 4,0 z m -7.5,-45 -3.5,0 0,-4 0,-4 3.5,0 3.5,0 0,4 0,4 -3.5,0 z m 37.5,0 -4,0 0,-4 0,-4 4,0 4,0 0,4 0,4 -4,0 z m 18.5,-15 7.5,0 0,-4 0,-4 -3.5,0 -3.5,0 0,-3.5 0,-3.5 -4,0 -4,0 0,7.5 0,7.5 7.5,0 z"
       id="path3163"
       style="fill:#ebcbbc" />
    <path
       d="m 120.5,203 -22.5,0 0,-4 0,-4 -7.5,0 -7.5,0 0,-3.5 0,-3.5 -7.5,0 -7.5,0 0,-4 0,-4 -4,0 -4,0 0,-3.5 0,-3.5 -3.5,0 -3.5,0 0,-7.5 0,-7.5 -7.5,0 -7.5,0 0,-15 0,-15 -4,0 -4,0 0,-15 0,-15 -3.5,0 -3.5,0 0,3.5 0,3.5 -4,0 -4,0 0,-7.5 0,-7.5 4,0 4,0 0,-3.5 0,-3.5 3.5,0 3.5,0 0,-4 0,-4 4,0 4,0 0,-3.5 0,-3.5 3.5,0 3.5,0 0,-4 0,-4 -3.5,0 -3.5,0 0,-3.5 0,-3.5 -4,0 -4,0 0,-4 0,-4 64,0 64,0 0,4 0,4 7.5,0 7.5,0 0,3.5 0,3.5 3.5,0 3.5,0 0,4 0,4 4,0 4,0 0,3.5 0,3.5 3.5,0 3.5,0 0,7.5 0,7.5 4,0 4,0 0,30 0,30 -4,0 -4,0 0,4 0,4 -3.5,0 -3.5,0 0,7.5 0,7.5 -4,0 -4,0 0,3.5 0,3.5 -3.5,0 -3.5,0 0,4 0,4 -7.5,0 -7.5,0 0,3.5 0,3.5 -7.5,0 -7.5,0 0,4 0,4 -22.5,0 z m 0,-8 22.5,0 0,-3.5 0,-3.5 7.5,0 7.5,0 0,-4 0,-4 7.5,0 7.5,0 0,-3.5 0,-3.5 3.5,0 3.5,0 0,-15 0,-15 -7.5,0 -7.5,0 0,-4 0,-4 -3.5,0 -3.5,0 0,15 0,15 -7.5,0 -7.5,0 0,-11 0,-11 3.5,0 3.5,0 0,-4 0,-4 -3.5,0 -3.5,0 0,-7.5 0,-7.5 -4,0 -4,0 0,-3.5 0,-3.5 -3.5,0 -3.5,0 0,-7.5 0,-7.5 -4,0 -4,0 0,3.5 0,3.5 -3.5,0 -3.5,0 0,7.5 0,7.5 -4,0 -4,0 0,4 0,4 -3.5,0 -3.5,0 0,-15 0,-15 -4,0 -4,0 0,3.5 0,3.5 -3.5,0 -3.5,0 0,4 0,4 -4,0 -4,0 0,3.5 0,3.5 -3.5,0 -3.5,0 0,4 0,4 15,0 15,0 0,3.5 0,3.5 -4,0 -4,0 0,4 0,4 4,0 4,0 0,11 0,11 -7.5,0 -7.5,0 0,-15 0,-15 -4,0 -4,0 0,4 0,4 -3.5,0 -3.5,0 0,-4 0,-4 -4,0 -4,0 0,19 0,19 4,0 4,0 0,3.5 0,3.5 7.5,0 7.5,0 0,4 0,4 7.5,0 7.5,0 0,3.5 0,3.5 22.5,0 z m 0,-7 -7.5,0 0,-4 0,-4 7.5,0 7.5,0 0,4 0,4 -7.5,0 z m -19,-45 -3.5,0 0,-4 0,-4 3.5,0 3.5,0 0,4 0,4 -3.5,0 z m 37.5,0 -4,0 0,-4 0,-4 4,0 4,0 0,4 0,4 -4,0 z m 18.5,-15 7.5,0 0,-4 0,-4 -3.5,0 -3.5,0 0,-3.5 0,-3.5 -4,0 -4,0 0,7.5 0,7.5 7.5,0 z"
       id="path3161"
       style="fill:#f7d46a" />
    <path
       d="m 120.5,203 -22.5,0 0,-4 0,-4 -7.5,0 -7.5,0 0,-3.5 0,-3.5 -7.5,0 -7.5,0 0,-4 0,-4 -4,0 -4,0 0,-3.5 0,-3.5 -3.5,0 -3.5,0 0,-7.5 0,-7.5 -7.5,0 -7.5,0 0,-15 0,-15 -4,0 -4,0 0,-15 0,-15 -3.5,0 -3.5,0 0,3.5 0,3.5 -4,0 -4,0 0,-7.5 0,-7.5 4,0 4,0 0,-3.5 0,-3.5 3.5,0 3.5,0 0,-4 0,-4 4,0 4,0 0,-3.5 0,-3.5 3.5,0 3.5,0 0,-4 0,-4 -3.5,0 -3.5,0 0,-3.5 0,-3.5 -4,0 -4,0 0,-4 0,-4 64,0 64,0 0,4 0,4 7.5,0 7.5,0 0,3.5 0,3.5 3.5,0 3.5,0 0,4 0,4 4,0 4,0 0,3.5 0,3.5 3.5,0 3.5,0 0,7.5 0,7.5 4,0 4,0 0,30 0,30 -4,0 -4,0 0,4 0,4 -3.5,0 -3.5,0 0,7.5 0,7.5 -4,0 -4,0 0,3.5 0,3.5 -3.5,0 -3.5,0 0,4 0,4 -7.5,0 -7.5,0 0,3.5 0,3.5 -7.5,0 -7.5,0 0,4 0,4 -22.5,0 z m 0,-8 22.5,0 0,-3.5 0,-3.5 7.5,0 7.5,0 0,-4 0,-4 7.5,0 7.5,0 0,-3.5 0,-3.5 3.5,0 3.5,0 0,-15 0,-15 -7.5,0 -7.5,0 0,-4 0,-4 -3.5,0 -3.5,0 0,15 0,15 -7.5,0 -7.5,0 0,-11 0,-11 3.5,0 3.5,0 0,-4 0,-4 -3.5,0 -3.5,0 0,-7.5 0,-7.5 -4,0 -4,0 0,-3.5 0,-3.5 -3.5,0 -3.5,0 0,-7.5 0,-7.5 -4,0 -4,0 0,3.5 0,3.5 -3.5,0 -3.5,0 0,7.5 0,7.5 -4,0 -4,0 0,4 0,4 -3.5,0 -3.5,0 0,-15 0,-15 -4,0 -4,0 0,3.5 0,3.5 -3.5,0 -3.5,0 0,4 0,4 -4,0 -4,0 0,3.5 0,3.5 -3.5,0 -3.5,0 0,4 0,4 15,0 15,0 0,3.5 0,3.5 -4,0 -4,0 0,4 0,4 4,0 4,0 0,11 0,11 -7.5,0 -7.5,0 0,-15 0,-15 -4,0 -4,0 0,4 0,4 -3.5,0 -3.5,0 0,-4 0,-4 -4,0 -4,0 0,19 0,19 4,0 4,0 0,3.5 0,3.5 7.5,0 7.5,0 0,4 0,4 7.5,0 7.5,0 0,3.5 0,3.5 22.5,0 z m 0,-7 -7.5,0 0,-4 0,-4 7.5,0 7.5,0 0,4 0,4 -7.5,0 z m -19,-45 -3.5,0 0,-4 0,-4 3.5,0 3.5,0 0,4 0,4 -3.5,0 z m 37.5,0 -4,0 0,-4 0,-4 4,0 4,0 0,4 0,4 -4,0 z m 18.5,-15 7.5,0 0,-4 0,-4 -3.5,0 -3.5,0 0,-3.5 0,-3.5 -4,0 -4,0 0,7.5 0,7.5 7.5,0 z M 83,90 98,90 98,86.5 98,83 86.5,83 75,83 l 0,-4 0,-4 -7.5,0 -7.5,0 0,4 0,4 4,0 4,0 0,3.5 0,3.5 15,0 z m 67.5,0 7.5,0 0,-3.5 0,-3.5 3.5,0 3.5,0 0,3.5 0,3.5 7.5,0 7.5,0 0,-3.5 0,-3.5 -3.5,0 -3.5,0 0,-4 0,-4 -19,0 -19,0 0,4 0,4 4,0 4,0 0,3.5 0,3.5 7.5,0 z"
       id="path3159"
       style="fill:#f7ba45" />
    <path
       d="m 120.5,203 -22.5,0 0,-4 0,-4 -7.5,0 -7.5,0 0,-3.5 0,-3.5 -7.5,0 -7.5,0 0,-4 0,-4 -4,0 -4,0 0,-3.5 0,-3.5 -3.5,0 -3.5,0 0,-7.5 0,-7.5 -7.5,0 -7.5,0 0,-15 0,-15 -4,0 -4,0 0,-15 0,-15 -3.5,0 -3.5,0 0,3.5 0,3.5 -4,0 -4,0 0,-3.5 0,-3.5 4,0 4,0 0,-7.5 0,-7.5 3.5,0 3.5,0 0,-4 0,-4 4,0 4,0 0,-3.5 0,-3.5 7.5,0 7.5,0 0,-4 0,-4 -4,0 -4,0 0,-3.5 0,-3.5 -7.5,0 -7.5,0 0,-4 0,-4 64,0 64,0 0,4 0,4 7.5,0 7.5,0 0,3.5 0,3.5 3.5,0 3.5,0 0,4 0,4 4,0 4,0 0,3.5 0,3.5 3.5,0 3.5,0 0,7.5 0,7.5 4,0 4,0 0,30 0,30 -4,0 -4,0 0,4 0,4 -3.5,0 -3.5,0 0,7.5 0,7.5 -4,0 -4,0 0,3.5 0,3.5 -3.5,0 -3.5,0 0,4 0,4 -7.5,0 -7.5,0 0,3.5 0,3.5 -7.5,0 -7.5,0 0,4 0,4 -22.5,0 z m 0,-8 22.5,0 0,-3.5 0,-3.5 7.5,0 7.5,0 0,-4 0,-4 7.5,0 7.5,0 0,-3.5 0,-3.5 3.5,0 3.5,0 0,-15 0,-15 -7.5,0 -7.5,0 0,-4 0,-4 -3.5,0 -3.5,0 0,15 0,15 -7.5,0 -7.5,0 0,-11 0,-11 3.5,0 3.5,0 0,-4 0,-4 -3.5,0 -3.5,0 0,-7.5 0,-7.5 -4,0 -4,0 0,-3.5 0,-3.5 4,0 4,0 0,-7.5 0,-7.5 7.5,0 7.5,0 0,3.5 0,3.5 3.5,0 3.5,0 0,4 0,4 4,0 4,0 0,-4 0,-4 -4,0 -4,0 0,-3.5 0,-3.5 -3.5,0 -3.5,0 0,-7.5 0,-7.5 3.5,0 3.5,0 0,3.5 0,3.5 4,0 4,0 0,4 0,4 3.5,0 3.5,0 0,11 0,11 4,0 4,0 0,-18.5 0,-18.5 -4,0 -4,0 0,-4 0,-4 -3.5,0 -3.5,0 0,-3.5 0,-3.5 -4,0 -4,0 0,-4 0,-4 -11,0 -11,0 0,-3.5 0,-3.5 -41.5,0 -41.5,0 0,3.5 0,3.5 11.5,0 11.5,0 0,4 0,4 -7.5,0 -7.5,0 0,3.5 0,3.5 -11.5,0 -11.5,0 0,4 0,4 -7.5,0 -7.5,0 0,3.5 0,3.5 7.5,0 7.5,0 0,4 0,4 -3.5,0 -3.5,0 0,7.5 0,7.5 3.5,0 3.5,0 0,-7.5 0,-7.5 4,0 4,0 0,-4 0,-4 7.5,0 7.5,0 0,4 0,4 -4,0 -4,0 0,3.5 0,3.5 -3.5,0 -3.5,0 0,7.5 0,7.5 -4,0 -4,0 0,7.5 0,7.5 4,0 4,0 0,-3.5 0,-3.5 3.5,0 3.5,0 0,-7.5 0,-7.5 4,0 4,0 0,-4 0,-4 3.5,0 3.5,0 0,-3.5 0,-3.5 4,0 4,0 0,-4 0,-4 7.5,0 7.5,0 0,-3.5 0,-3.5 3.5,0 3.5,0 0,-4 0,-4 4,0 4,0 0,7.5 0,7.5 -4,0 -4,0 0,7.5 0,7.5 4,0 4,0 0,4 0,4 -4,0 -4,0 0,7.5 0,7.5 -3.5,0 -3.5,0 0,-15 0,-15 -4,0 -4,0 0,3.5 0,3.5 -3.5,0 -3.5,0 0,4 0,4 -4,0 -4,0 0,3.5 0,3.5 -3.5,0 -3.5,0 0,4 0,4 15,0 15,0 0,3.5 0,3.5 -4,0 -4,0 0,4 0,4 4,0 4,0 0,11 0,11 -7.5,0 -7.5,0 0,-15 0,-15 -4,0 -4,0 0,4 0,4 -3.5,0 -3.5,0 0,-4 0,-4 -4,0 -4,0 0,19 0,19 4,0 4,0 0,3.5 0,3.5 7.5,0 7.5,0 0,4 0,4 7.5,0 7.5,0 0,3.5 0,3.5 22.5,0 z m 0,-7 -7.5,0 0,-4 0,-4 7.5,0 7.5,0 0,4 0,4 -7.5,0 z m -19,-45 -3.5,0 0,-4 0,-4 3.5,0 3.5,0 0,4 0,4 -3.5,0 z m 37.5,0 -4,0 0,-4 0,-4 4,0 4,0 0,4 0,4 -4,0 z m -7.5,-30 -3.5,0 0,-7.5 0,-7.5 -4,0 -4,0 0,3.5 0,3.5 -3.5,0 -3.5,0 0,-7.5 0,-7.5 7.5,0 7.5,0 0,-3.5 0,-3.5 3.5,0 3.5,0 0,15 0,15 -3.5,0 z M 49,90 l -4,0 0,-3.5 0,-3.5 4,0 4,0 0,3.5 0,3.5 -4,0 z m 67.5,-15 -3.5,0 0,-3.5 0,-3.5 3.5,0 3.5,0 0,3.5 0,3.5 -3.5,0 z m 41,53 7.5,0 0,-4 0,-4 -3.5,0 -3.5,0 0,-3.5 0,-3.5 -4,0 -4,0 0,7.5 0,7.5 7.5,0 z"
       id="path3157"
       style="fill:#f7ab19" />
    <path
       d="m 120.5,203 -22.5,0 0,-4 0,-4 -7.5,0 -7.5,0 0,-3.5 0,-3.5 -7.5,0 -7.5,0 0,-4 0,-4 -4,0 -4,0 0,-3.5 0,-3.5 -3.5,0 -3.5,0 0,-7.5 0,-7.5 -4,0 -4,0 0,-4 0,-4 4,0 4,0 0,-3.5 0,-3.5 -4,0 -4,0 0,-4 0,-4 4,0 4,0 0,-3.5 0,-3.5 3.5,0 3.5,0 0,3.5 0,3.5 -3.5,0 -3.5,0 0,4 0,4 3.5,0 3.5,0 0,15 0,15 4,0 4,0 0,3.5 0,3.5 7.5,0 7.5,0 0,4 0,4 7.5,0 7.5,0 0,3.5 0,3.5 22.5,0 22.5,0 0,-3.5 0,-3.5 7.5,0 7.5,0 0,-4 0,-4 7.5,0 7.5,0 0,-3.5 0,-3.5 3.5,0 3.5,0 0,-7.5 0,-7.5 4,0 4,0 0,-4 0,-4 -4,0 -4,0 0,-15 0,-15 4,0 4,0 0,15 0,15 3.5,0 3.5,0 0,-7.5 0,-7.5 4,0 4,0 0,7.5 0,7.5 -4,0 -4,0 0,4 0,4 -3.5,0 -3.5,0 0,7.5 0,7.5 -4,0 -4,0 0,3.5 0,3.5 -3.5,0 -3.5,0 0,4 0,4 -7.5,0 -7.5,0 0,3.5 0,3.5 -7.5,0 -7.5,0 0,4 0,4 -22.5,0 z m 0,-15 -7.5,0 0,-4 0,-4 7.5,0 7.5,0 0,4 0,4 -7.5,0 z m -30,-23 -7.5,0 0,-15 0,-15 -4,0 -4,0 0,4 0,4 -3.5,0 -3.5,0 0,-7.5 0,-7.5 15,0 15,0 0,3.5 0,3.5 3.5,0 3.5,0 0,4 0,4 -3.5,0 -3.5,0 0,11 0,11 -7.5,0 z m 3.5,-22 4,0 0,-4 0,-4 -4,0 -4,0 0,4 0,4 4,0 z m 56.5,22 -7.5,0 0,-11 0,-11 -4,0 -4,0 0,-4 0,-4 4,0 4,0 0,-3.5 0,-3.5 15,0 15,0 0,7.5 0,7.5 -4,0 -4,0 0,-4 0,-4 -3.5,0 -3.5,0 0,15 0,15 -7.5,0 z m -4,-22 3.5,0 0,-4 0,-4 -3.5,0 -3.5,0 0,4 0,4 3.5,0 z m -105,-23 -3.5,0 0,-3.5 0,-3.5 3.5,0 3.5,0 0,3.5 0,3.5 -3.5,0 z m 22.5,0 -4,0 0,-3.5 0,-3.5 4,0 4,0 0,-4 0,-4 3.5,0 3.5,0 0,-3.5 0,-3.5 4,0 4,0 0,-4 0,-4 3.5,0 3.5,0 0,4 0,4 -3.5,0 -3.5,0 0,3.5 0,3.5 -4,0 -4,0 0,4 0,4 -3.5,0 -3.5,0 0,3.5 0,3.5 -4,0 z m 105,0 -4,0 0,-3.5 0,-3.5 -3.5,0 -3.5,0 0,-4 0,-4 -4,0 -4,0 0,-3.5 0,-3.5 4,0 4,0 0,3.5 0,3.5 3.5,0 3.5,0 0,4 0,4 4,0 4,0 0,3.5 0,3.5 -4,0 z m 22.5,-7 -3.5,0 0,-11.5 0,-11.5 3.5,0 3.5,0 0,11.5 0,11.5 -3.5,0 z M 49,105 l -4,0 0,-3.5 0,-3.5 4,0 4,0 0,-4 0,-4 3.5,0 3.5,0 0,4 0,4 -3.5,0 -3.5,0 0,3.5 0,3.5 -4,0 z m 127.5,0 -3.5,0 0,-3.5 0,-3.5 -4,0 -4,0 0,-4 0,-4 -3.5,0 -3.5,0 0,-3.5 0,-3.5 3.5,0 3.5,0 0,3.5 0,3.5 4,0 4,0 0,4 0,4 3.5,0 3.5,0 0,3.5 0,3.5 -3.5,0 z m -60,-7 -3.5,0 0,-4 0,-4 3.5,0 3.5,0 0,4 0,4 -3.5,0 z m -15,-8 -3.5,0 0,-3.5 0,-3.5 3.5,0 3.5,0 0,-4 0,-4 4,0 4,0 0,-3.5 0,-3.5 3.5,0 3.5,0 0,3.5 0,3.5 -3.5,0 -3.5,0 0,4 0,4 -4,0 -4,0 0,3.5 0,3.5 -3.5,0 z m 30,0 -3.5,0 0,-3.5 0,-3.5 3.5,0 3.5,0 0,3.5 0,3.5 -3.5,0 z m -90,-7 -3.5,0 0,-4 0,-4 3.5,0 3.5,0 0,4 0,4 -3.5,0 z m 142.5,0 -4,0 0,-4 0,-4 -3.5,0 -3.5,0 0,-3.5 0,-3.5 -4,0 -4,0 0,-4 0,-4 4,0 4,0 0,4 0,4 3.5,0 3.5,0 0,3.5 0,3.5 4,0 4,0 0,4 0,4 -4,0 z M 60.5,75 53,75 l 0,-3.5 0,-3.5 7.5,0 7.5,0 0,-4 0,-4 7.5,0 7.5,0 0,4 0,4 -7.5,0 -7.5,0 0,3.5 0,3.5 -7.5,0 z m -4,-15 -3.5,0 0,-3.5 0,-3.5 3.5,0 3.5,0 0,3.5 0,3.5 -3.5,0 z m 94,0 -7.5,0 0,-3.5 0,-3.5 7.5,0 7.5,0 0,3.5 0,3.5 -7.5,0 z"
       id="path3155"
       style="fill:#dd9509" />
    <path
       d="m 120.5,203 -22.5,0 0,-4 0,-4 -7.5,0 -7.5,0 0,-3.5 0,-3.5 -7.5,0 -7.5,0 0,-4 0,-4 -4,0 -4,0 0,-3.5 0,-3.5 -3.5,0 -3.5,0 0,-7.5 0,-7.5 -4,0 -4,0 0,-4 0,-4 4,0 4,0 0,-3.5 0,-3.5 3.5,0 3.5,0 0,15 0,15 4,0 4,0 0,3.5 0,3.5 7.5,0 7.5,0 0,4 0,4 7.5,0 7.5,0 0,3.5 0,3.5 22.5,0 22.5,0 0,-3.5 0,-3.5 7.5,0 7.5,0 0,-4 0,-4 7.5,0 7.5,0 0,-3.5 0,-3.5 3.5,0 3.5,0 0,-7.5 0,-7.5 4,0 4,0 0,-4 0,-4 3.5,0 3.5,0 0,-7.5 0,-7.5 4,0 4,0 0,7.5 0,7.5 -4,0 -4,0 0,4 0,4 -3.5,0 -3.5,0 0,7.5 0,7.5 -4,0 -4,0 0,3.5 0,3.5 -3.5,0 -3.5,0 0,4 0,4 -7.5,0 -7.5,0 0,3.5 0,3.5 -7.5,0 -7.5,0 0,4 0,4 -22.5,0 z m 0,-15 -7.5,0 0,-4 0,-4 7.5,0 7.5,0 0,4 0,4 -7.5,0 z m -30,-23 -7.5,0 0,-15 0,-15 -4,0 -4,0 0,4 0,4 -3.5,0 -3.5,0 0,-7.5 0,-7.5 15,0 15,0 0,3.5 0,3.5 3.5,0 3.5,0 0,4 0,4 -3.5,0 -3.5,0 0,11 0,11 -7.5,0 z m 3.5,-22 4,0 0,-4 0,-4 -4,0 -4,0 0,4 0,4 4,0 z m 56.5,22 -7.5,0 0,-11 0,-11 -4,0 -4,0 0,-4 0,-4 4,0 4,0 0,-3.5 0,-3.5 15,0 15,0 0,7.5 0,7.5 -4,0 -4,0 0,-4 0,-4 -3.5,0 -3.5,0 0,15 0,15 -7.5,0 z m -4,-22 3.5,0 0,-4 0,-4 -3.5,0 -3.5,0 0,4 0,4 3.5,0 z"
       id="path3153"
       style="fill:#40639f" />
    <path
       d="m 120.5,203 -22.5,0 0,-4 0,-4 -7.5,0 -7.5,0 0,-3.5 0,-3.5 -7.5,0 -7.5,0 0,-4 0,-4 -4,0 -4,0 0,-3.5 0,-3.5 -3.5,0 -3.5,0 0,-7.5 0,-7.5 -4,0 -4,0 0,-4 0,-4 4,0 4,0 0,-3.5 0,-3.5 3.5,0 3.5,0 0,15 0,15 4,0 4,0 0,3.5 0,3.5 7.5,0 7.5,0 0,4 0,4 7.5,0 7.5,0 0,3.5 0,3.5 22.5,0 22.5,0 0,-3.5 0,-3.5 7.5,0 7.5,0 0,-4 0,-4 7.5,0 7.5,0 0,-3.5 0,-3.5 3.5,0 3.5,0 0,-7.5 0,-7.5 4,0 4,0 0,-4 0,-4 3.5,0 3.5,0 0,-7.5 0,-7.5 4,0 4,0 0,7.5 0,7.5 -4,0 -4,0 0,4 0,4 -3.5,0 -3.5,0 0,7.5 0,7.5 -4,0 -4,0 0,3.5 0,3.5 -3.5,0 -3.5,0 0,4 0,4 -7.5,0 -7.5,0 0,3.5 0,3.5 -7.5,0 -7.5,0 0,4 0,4 -22.5,0 z m 0,-15 -7.5,0 0,-4 0,-4 7.5,0 7.5,0 0,4 0,4 -7.5,0 z m -30,-38 -7.5,0 0,-7.5 0,-7.5 -4,0 -4,0 0,4 0,4 -3.5,0 -3.5,0 0,-7.5 0,-7.5 15,0 15,0 0,3.5 0,3.5 3.5,0 3.5,0 0,4 0,4 -3.5,0 -3.5,0 0,3.5 0,3.5 -7.5,0 z m 3.5,-7 4,0 0,-4 0,-4 -4,0 -4,0 0,4 0,4 4,0 z m 56.5,7 -7.5,0 0,-3.5 0,-3.5 -4,0 -4,0 0,-4 0,-4 4,0 4,0 0,-3.5 0,-3.5 15,0 15,0 0,7.5 0,7.5 -4,0 -4,0 0,-4 0,-4 -3.5,0 -3.5,0 0,7.5 0,7.5 -7.5,0 z m -4,-7 3.5,0 0,-4 0,-4 -3.5,0 -3.5,0 0,4 0,4 3.5,0 z"
       id="path3151"
       style="fill:#3a3881" />
    <path
       d="m 120.5,203 -22.5,0 0,-4 0,-4 -7.5,0 -7.5,0 0,-3.5 0,-3.5 -7.5,0 -7.5,0 0,-4 0,-4 -4,0 -4,0 0,-3.5 0,-3.5 -3.5,0 -3.5,0 0,-7.5 0,-7.5 -4,0 -4,0 0,-4 0,-4 4,0 4,0 0,-3.5 0,-3.5 3.5,0 3.5,0 0,15 0,15 4,0 4,0 0,3.5 0,3.5 7.5,0 7.5,0 0,4 0,4 7.5,0 7.5,0 0,3.5 0,3.5 22.5,0 22.5,0 0,-3.5 0,-3.5 7.5,0 7.5,0 0,-4 0,-4 7.5,0 7.5,0 0,-3.5 0,-3.5 3.5,0 3.5,0 0,-7.5 0,-7.5 4,0 4,0 0,-4 0,-4 3.5,0 3.5,0 0,-7.5 0,-7.5 4,0 4,0 0,7.5 0,7.5 -4,0 -4,0 0,4 0,4 -3.5,0 -3.5,0 0,7.5 0,7.5 -4,0 -4,0 0,3.5 0,3.5 -3.5,0 -3.5,0 0,4 0,4 -7.5,0 -7.5,0 0,3.5 0,3.5 -7.5,0 -7.5,0 0,4 0,4 -22.5,0 z m 0,-15 -7.5,0 0,-4 0,-4 7.5,0 7.5,0 0,4 0,4 -7.5,0 z m -49,-45 -3.5,0 0,-7.5 0,-7.5 15,0 15,0 0,3.5 0,3.5 3.5,0 3.5,0 0,4 0,4 -3.5,0 -3.5,0 0,-4 0,-4 -11.5,0 -11.5,0 0,4 0,4 -3.5,0 z m 67.5,0 -4,0 0,-4 0,-4 4,0 4,0 0,-3.5 0,-3.5 15,0 15,0 0,7.5 0,7.5 -4,0 -4,0 0,-4 0,-4 -11,0 -11,0 0,4 0,4 -4,0 z"
       id="path3149"
       style="fill:#502617" />
    <path
       d="m 120.5,188 -7.5,0 0,-4 0,-4 7.5,0 7.5,0 0,4 0,4 -7.5,0 z m -49,-45 -3.5,0 0,-7.5 0,-7.5 15,0 15,0 0,3.5 0,3.5 3.5,0 3.5,0 0,4 0,4 -3.5,0 -3.5,0 0,-4 0,-4 -11.5,0 -11.5,0 0,4 0,4 -3.5,0 z m 67.5,0 -4,0 0,-4 0,-4 4,0 4,0 0,-3.5 0,-3.5 15,0 15,0 0,7.5 0,7.5 -4,0 -4,0 0,-4 0,-4 -11,0 -11,0 0,4 0,4 -4,0 z"
       id="path3147"
       style="fill:#000000" />
  </g>
</svg>
