<?xml version="1.0" encoding="UTF-8" standalone="no"?>
<!-- Created with Inkscape (http://www.inkscape.org/) -->

<svg
   xmlns:dc="http://purl.org/dc/elements/1.1/"
   xmlns:cc="http://creativecommons.org/ns#"
   xmlns:rdf="http://www.w3.org/1999/02/22-rdf-syntax-ns#"
   xmlns:svg="http://www.w3.org/2000/svg"
   xmlns="http://www.w3.org/2000/svg"
   xmlns:sodipodi="http://sodipodi.sourceforge.net/DTD/sodipodi-0.dtd"
   xmlns:inkscape="http://www.inkscape.org/namespaces/inkscape"
   version="1.1"
   width="188"
   height="188"
   id="svg3135"
   sodipodi:docname="logo.svg"
   inkscape:version="0.92.2 (5c3e80d, 2017-08-06)"
   inkscape:export-filename="/home/guillaume/workspace/github/guillaumevincent.com/files/favicon.png"
   inkscape:export-xdpi="300.25531"
   inkscape:export-ydpi="300.25531">
  <sodipodi:namedview
     pagecolor="#ffffff"
     bordercolor="#666666"
     borderopacity="1"
     objecttolerance="10"
     gridtolerance="10"
     guidetolerance="10"
     inkscape:pageopacity="0"
     inkscape:pageshadow="2"
     inkscape:window-width="1920"
     inkscape:window-height="1016"
     id="namedview16"
     showgrid="false"
     inkscape:pagecheckerboard="true"
     showborder="true"
     inkscape:showpageshadow="false"
     inkscape:zoom="0.69532167"
     inkscape:cx="-25.039336"
     inkscape:cy="-11.139593"
     inkscape:window-x="0"
     inkscape:window-y="27"
     inkscape:window-maximized="1"
     inkscape:current-layer="svg3135"
     fit-margin-top="0"
     fit-margin-left="0"
     fit-margin-right="0"
     fit-margin-bottom="0" />
  <metadata
     id="metadata3141">
    <rdf:RDF>
      <cc:Work
         rdf:about="">
        <dc:format>image/svg+xml</dc:format>
        <dc:type
           rdf:resource="http://purl.org/dc/dcmitype/StillImage" />
        <dc:title></dc:title>
      </cc:Work>
    </rdf:RDF>
  </metadata>
  <defs
     id="defs3139" />
  <g
     id="g876"
     transform="translate(-24.661018,-24.40678)">
    <path
       d="m 130.16102,197.40678 h -22.5 v -4 -4 h -7.5 -7.500005 v -3.5 -3.5 h -7.5 -7.5 v -4 -4 h -4 -4 v -3.5 -3.5 h -3.5 -3.5 v -7.5 -7.5 h -7.5 -7.5 v -15 -15 h -4 -4 v -15 -15 h -3.5 -3.5 v 3.5 3.5 h -4 -4 v -7.5 -7.5 h 4 4 v -3.5 -3.5 h 3.5 3.5 v -4 -4 h 4 4 v -3.5 -3.5 h 3.5 3.5 v -4 -4 h -3.5 -3.5 v -3.5 -3.5 h -4 -4 v -4 -4 h 64.000005 64 v 4 4 h 7.5 7.5 v 3.5 3.5 h 3.5 3.5 v 4 4 h 4 4 v 3.5 3.5 h 3.5 3.5 v 7.5 7.5 h 4 4 v 30 30 h -4 -4 v 4 4 h -3.5 -3.5 v 7.5 7.5 h -4 -4 v 3.5 3.5 h -3.5 -3.5 v 4 4 h -7.5 -7.5 v 3.5 3.5 h -7.5 -7.5 v 4 4 z m -41.500005,-38 h 4 v -15 -15 h -4 -4 v 15 15 z m 82.500005,0 h 3.5 v -15 -15 h -3.5 -3.5 v 15 15 z m -67.5,-22 h 4 v -4 -4 h -4 -4.000005 v 4 4 z m 52.5,0 h 3.5 v -4 -4 h -3.5 -3.5 v 4 4 z"
       id="path3165"
       style="fill:#fbdcca"
       inkscape:connector-curvature="0" />
    <path
       d="m 130.16102,197.40678 h -22.5 v -4 -4 h -7.5 -7.500005 v -3.5 -3.5 h -7.5 -7.5 v -4 -4 h -4 -4 v -3.5 -3.5 h -3.5 -3.5 v -7.5 -7.5 h -7.5 -7.5 v -15 -15 h -4 -4 v -15 -15 h -3.5 -3.5 v 3.5 3.5 h -4 -4 v -7.5 -7.5 h 4 4 v -3.5 -3.5 h 3.5 3.5 v -4 -4 h 4 4 v -3.5 -3.5 h 3.5 3.5 v -4 -4 h -3.5 -3.5 v -3.5 -3.5 h -4 -4 v -4 -4 h 64.000005 64 v 4 4 h 7.5 7.5 v 3.5 3.5 h 3.5 3.5 v 4 4 h 4 4 v 3.5 3.5 h 3.5 3.5 v 7.5 7.5 h 4 4 v 30 30 h -4 -4 v 4 4 h -3.5 -3.5 v 7.5 7.5 h -4 -4 v 3.5 3.5 h -3.5 -3.5 v 4 4 h -7.5 -7.5 v 3.5 3.5 h -7.5 -7.5 v 4 4 z m -11.5,-15 h 4 v -4 -4 h 7.5 7.5 v 4 4 h 3.5 3.5 v -4 -4 h 7.5 7.5 v -3.5 -3.5 h 7.5 7.5 v -4 -4 h 4 4 v -11 -11 h -4 -4 v -4 -4 h -3.5 -3.5 v 15 15 h -7.5 -7.5 v -11 -11 h 3.5 3.5 v -4 -4 h -3.5 -3.5 v -7.5 -7.5 h -4 -4 v -3.5 -3.5 h -3.5 -3.5 v -7.5 -7.5 h -4 -4 v 3.5 3.5 h -3.5 -3.5 v 7.5 7.5 h -4 -4 v 4 4 h -3.5 -3.5 v -15 -15 h -4 -4.000005 v 3.5 3.5 h -3.5 -3.5 v 4 4 h -4 -4 v 3.5 3.5 h -3.5 -3.5 v 4 4 h 15 15.000005 v 3.5 3.5 h -4 -4.000005 v 4 4 h 4.000005 4 v 11 11 h -7.5 -7.500005 v -15 -15 h -4 -4 v 4 4 h -3.5 -3.5 v 11 11 h 3.5 3.5 v 4 4 h 7.5 7.5 v 3.5 3.5 h 7.500005 7.5 v 4 4 z m -7.5,-45 h -3.5 v -4 -4 h 3.5 3.5 v 4 4 z m 37.5,0 h -4 v -4 -4 h 4 4 v 4 4 z m 18.5,-15 h 7.5 v -4 -4 h -3.5 -3.5 v -3.5 -3.5 h -4 -4 v 7.5 7.5 z"
       id="path3163"
       style="fill:#ebcbbc"
       inkscape:connector-curvature="0" />
    <path
       d="m 130.16102,197.40678 h -22.5 v -4 -4 h -7.5 -7.500005 v -3.5 -3.5 h -7.5 -7.5 v -4 -4 h -4 -4 v -3.5 -3.5 h -3.5 -3.5 v -7.5 -7.5 h -7.5 -7.5 v -15 -15 h -4 -4 v -15 -15 h -3.5 -3.5 v 3.5 3.5 h -4 -4 v -7.5 -7.5 h 4 4 v -3.5 -3.5 h 3.5 3.5 v -4 -4 h 4 4 v -3.5 -3.5 h 3.5 3.5 v -4 -4 h -3.5 -3.5 v -3.5 -3.5 h -4 -4 v -4 -4 h 64.000005 64 v 4 4 h 7.5 7.5 v 3.5 3.5 h 3.5 3.5 v 4 4 h 4 4 v 3.5 3.5 h 3.5 3.5 v 7.5 7.5 h 4 4 v 30 30 h -4 -4 v 4 4 h -3.5 -3.5 v 7.5 7.5 h -4 -4 v 3.5 3.5 h -3.5 -3.5 v 4 4 h -7.5 -7.5 v 3.5 3.5 h -7.5 -7.5 v 4 4 z m 0,-8 h 22.5 v -3.5 -3.5 h 7.5 7.5 v -4 -4 h 7.5 7.5 v -3.5 -3.5 h 3.5 3.5 v -15 -15 h -7.5 -7.5 v -4 -4 h -3.5 -3.5 v 15 15 h -7.5 -7.5 v -11 -11 h 3.5 3.5 v -4 -4 h -3.5 -3.5 v -7.5 -7.5 h -4 -4 v -3.5 -3.5 h -3.5 -3.5 v -7.5 -7.5 h -4 -4 v 3.5 3.5 h -3.5 -3.5 v 7.5 7.5 h -4 -4 v 4 4 h -3.5 -3.5 v -15 -15 h -4 -4.000005 v 3.5 3.5 h -3.5 -3.5 v 4 4 h -4 -4 v 3.5 3.5 h -3.5 -3.5 v 4 4 h 15 15.000005 v 3.5 3.5 h -4 -4.000005 v 4 4 h 4.000005 4 v 11 11 h -7.5 -7.500005 v -15 -15 h -4 -4 v 4 4 h -3.5 -3.5 v -4 -4 h -4 -4 v 19 19 h 4 4 v 3.5 3.5 h 7.5 7.5 v 4 4 h 7.500005 7.5 v 3.5 3.5 z m 0,-7 h -7.5 v -4 -4 h 7.5 7.5 v 4 4 z m -19,-45 h -3.5 v -4 -4 h 3.5 3.5 v 4 4 z m 37.5,0 h -4 v -4 -4 h 4 4 v 4 4 z m 18.5,-15 h 7.5 v -4 -4 h -3.5 -3.5 v -3.5 -3.5 h -4 -4 v 7.5 7.5 z"
       id="path3161"
       style="fill:#f7d46a"
       inkscape:connector-curvature="0" />
    <path
       d="m 130.16102,197.40678 h -22.5 v -4 -4 h -7.5 -7.500005 v -3.5 -3.5 h -7.5 -7.5 v -4 -4 h -4 -4 v -3.5 -3.5 h -3.5 -3.5 v -7.5 -7.5 h -7.5 -7.5 v -15 -15 h -4 -4 v -15 -15 h -3.5 -3.5 v 3.5 3.5 h -4 -4 v -7.5 -7.5 h 4 4 v -3.5 -3.5 h 3.5 3.5 v -4 -4 h 4 4 v -3.5 -3.5 h 3.5 3.5 v -4 -4 h -3.5 -3.5 v -3.5 -3.5 h -4 -4 v -4 -4 h 64.000005 64 v 4 4 h 7.5 7.5 v 3.5 3.5 h 3.5 3.5 v 4 4 h 4 4 v 3.5 3.5 h 3.5 3.5 v 7.5 7.5 h 4 4 v 30 30 h -4 -4 v 4 4 h -3.5 -3.5 v 7.5 7.5 h -4 -4 v 3.5 3.5 h -3.5 -3.5 v 4 4 h -7.5 -7.5 v 3.5 3.5 h -7.5 -7.5 v 4 4 z m 0,-8 h 22.5 v -3.5 -3.5 h 7.5 7.5 v -4 -4 h 7.5 7.5 v -3.5 -3.5 h 3.5 3.5 v -15 -15 h -7.5 -7.5 v -4 -4 h -3.5 -3.5 v 15 15 h -7.5 -7.5 v -11 -11 h 3.5 3.5 v -4 -4 h -3.5 -3.5 v -7.5 -7.5 h -4 -4 v -3.5 -3.5 h -3.5 -3.5 v -7.5 -7.5 h -4 -4 v 3.5 3.5 h -3.5 -3.5 v 7.5 7.5 h -4 -4 v 4 4 h -3.5 -3.5 v -15 -15 h -4 -4.000005 v 3.5 3.5 h -3.5 -3.5 v 4 4 h -4 -4 v 3.5 3.5 h -3.5 -3.5 v 4 4 h 15 15.000005 v 3.5 3.5 h -4 -4.000005 v 4 4 h 4.000005 4 v 11 11 h -7.5 -7.500005 v -15 -15 h -4 -4 v 4 4 h -3.5 -3.5 v -4 -4 h -4 -4 v 19 19 h 4 4 v 3.5 3.5 h 7.5 7.5 v 4 4 h 7.500005 7.5 v 3.5 3.5 z m 0,-7 h -7.5 v -4 -4 h 7.5 7.5 v 4 4 z m -19,-45 h -3.5 v -4 -4 h 3.5 3.5 v 4 4 z m 37.5,0 h -4 v -4 -4 h 4 4 v 4 4 z m 18.5,-15 h 7.5 v -4 -4 h -3.5 -3.5 v -3.5 -3.5 h -4 -4 v 7.5 7.5 z m -74.500005,-38 h 15.000005 v -3.5 -3.5 h -11.500005 -11.5 v -4 -4 h -7.5 -7.5 v 4 4 h 4 4 v 3.5 3.5 z m 67.500005,0 h 7.5 v -3.5 -3.5 h 3.5 3.5 v 3.5 3.5 h 7.5 7.5 v -3.5 -3.5 h -3.5 -3.5 v -4 -4 h -19 -19 v 4 4 h 4 4 v 3.5 3.5 z"
       id="path3159"
       style="fill:#f7ba45"
       inkscape:connector-curvature="0" />
    <path
       d="m 130.16102,197.40678 h -22.5 v -4 -4 h -7.5 -7.500005 v -3.5 -3.5 h -7.5 -7.5 v -4 -4 h -4 -4 v -3.5 -3.5 h -3.5 -3.5 v -7.5 -7.5 h -7.5 -7.5 v -15 -15 h -4 -4 v -15 -15 h -3.5 -3.5 v 3.5 3.5 h -4 -4 v -3.5 -3.5 h 4 4 v -7.5 -7.5 h 3.5 3.5 v -4 -4 h 4 4 v -3.5 -3.5 h 7.5 7.5 v -4 -4 h -4 -4 v -3.5 -3.5 h -7.5 -7.5 v -4 -4 h 64.000005 64 v 4 4 h 7.5 7.5 v 3.5 3.5 h 3.5 3.5 v 4 4 h 4 4 v 3.5 3.5 h 3.5 3.5 v 7.5 7.5 h 4 4 v 30 30 h -4 -4 v 4 4 h -3.5 -3.5 v 7.5 7.5 h -4 -4 v 3.5 3.5 h -3.5 -3.5 v 4 4 h -7.5 -7.5 v 3.5 3.5 h -7.5 -7.5 v 4 4 z m 0,-8 h 22.5 v -3.5 -3.5 h 7.5 7.5 v -4 -4 h 7.5 7.5 v -3.5 -3.5 h 3.5 3.5 v -15 -15 h -7.5 -7.5 v -4 -4 h -3.5 -3.5 v 15 15 h -7.5 -7.5 v -11 -11 h 3.5 3.5 v -4 -4 h -3.5 -3.5 v -7.5 -7.5 h -4 -4 v -3.5 -3.5 h 4 4 v -7.5 -7.5 h 7.5 7.5 v 3.5 3.5 h 3.5 3.5 v 4 4 h 4 4 v -4 -4 h -4 -4 v -3.5 -3.5 h -3.5 -3.5 v -7.5 -7.5 h 3.5 3.5 v 3.5 3.5 h 4 4 v 4 4 h 3.5 3.5 v 11 11 h 4 4 v -18.5 -18.5 h -4 -4 v -4 -4 h -3.5 -3.5 v -3.5 -3.5 h -4 -4 v -4 -4 h -11 -11 v -3.5 -3.5 h -41.5 -41.500005 v 3.5 3.5 h 11.5 11.5 v 4 4 h -7.5 -7.5 v 3.5 3.5 h -11.5 -11.5 v 4 4 h -7.5 -7.5 v 3.5 3.5 h 7.5 7.5 v 4 4 h -3.5 -3.5 v 7.5 7.5 h 3.5 3.5 v -7.5 -7.5 h 4 4 v -4 -4 h 7.5 7.5 v 4 4 h -4 -4 v 3.5 3.5 h -3.5 -3.5 v 7.5 7.5 h -4 -4 v 7.5 7.5 h 4 4 v -3.5 -3.5 h 3.5 3.5 v -7.5 -7.5 h 4 4 v -4 -4 h 3.5 3.5 v -3.5 -3.5 h 4 4 v -4 -4 h 7.500005 7.5 v -3.5 -3.5 h 3.5 3.5 v -4 -4 h 4 4 v 7.5 7.5 h -4 -4 v 7.5 7.5 h 4 4 v 4 4 h -4 -4 v 7.5 7.5 h -3.5 -3.5 v -15 -15 h -4 -4.000005 v 3.5 3.5 h -3.5 -3.5 v 4 4 h -4 -4 v 3.5 3.5 h -3.5 -3.5 v 4 4 h 15 15.000005 v 3.5 3.5 h -4 -4.000005 v 4 4 h 4.000005 4 v 11 11 h -7.5 -7.500005 v -15 -15 h -4 -4 v 4 4 h -3.5 -3.5 v -4 -4 h -4 -4 v 19 19 h 4 4 v 3.5 3.5 h 7.5 7.5 v 4 4 h 7.500005 7.5 v 3.5 3.5 z m 0,-7 h -7.5 v -4 -4 h 7.5 7.5 v 4 4 z m -19,-45 h -3.5 v -4 -4 h 3.5 3.5 v 4 4 z m 37.5,0 h -4 v -4 -4 h 4 4 v 4 4 z m -7.5,-30 h -3.5 v -7.5 -7.5 h -4 -4 v 3.5 3.5 h -3.5 -3.5 v -7.5 -7.5 h 7.5 7.5 v -3.5 -3.5 h 3.5 3.5 v 15 15 z m -82.500005,-23 h -4 v -3.5 -3.5 h 4 4 v 3.5 3.5 z m 67.500005,-15 h -3.5 v -3.5 -3.5 h 3.5 3.5 v 3.5 3.5 z m 41,53 h 7.5 v -4 -4 h -3.5 -3.5 v -3.5 -3.5 h -4 -4 v 7.5 7.5 z"
       id="path3157"
       style="fill:#f7ab19"
       inkscape:connector-curvature="0" />
    <path
       d="m 130.16102,197.40678 h -22.5 v -4 -4 h -7.5 -7.500005 v -3.5 -3.5 h -7.5 -7.5 v -4 -4 h -4 -4 v -3.5 -3.5 h -3.5 -3.5 v -7.5 -7.5 h -4 -4 v -4 -4 h 4 4 v -3.5 -3.5 h -4 -4 v -4 -4 h 4 4 v -3.5 -3.5 h 3.5 3.5 v 3.5 3.5 h -3.5 -3.5 v 4 4 h 3.5 3.5 v 15 15 h 4 4 v 3.5 3.5 h 7.5 7.5 v 4 4 h 7.500005 7.5 v 3.5 3.5 h 22.5 22.5 v -3.5 -3.5 h 7.5 7.5 v -4 -4 h 7.5 7.5 v -3.5 -3.5 h 3.5 3.5 v -7.5 -7.5 h 4 4 v -4 -4 h -4 -4 v -15 -15 h 4 4 v 15 15 h 3.5 3.5 v -7.5 -7.5 h 4 4 v 7.5 7.5 h -4 -4 v 4 4 h -3.5 -3.5 v 7.5 7.5 h -4 -4 v 3.5 3.5 h -3.5 -3.5 v 4 4 h -7.5 -7.5 v 3.5 3.5 h -7.5 -7.5 v 4 4 z m 0,-15 h -7.5 v -4 -4 h 7.5 7.5 v 4 4 z m -30,-23 h -7.500005 v -15 -15 h -4 -4 v 4 4 h -3.5 -3.5 v -7.5 -7.5 h 15 15.000005 v 3.5 3.5 h 3.5 3.5 v 4 4 h -3.5 -3.5 v 11 11 z m 3.5,-22 h 4 v -4 -4 h -4 -4.000005 v 4 4 z m 56.5,22 h -7.5 v -11 -11 h -4 -4 v -4 -4 h 4 4 v -3.5 -3.5 h 15 15 v 7.5 7.5 h -4 -4 v -4 -4 h -3.5 -3.5 v 15 15 z m -4,-22 h 3.5 v -4 -4 h -3.5 -3.5 v 4 4 z m -105.000005,-23 h -3.5 v -3.5 -3.5 h 3.5 3.5 v 3.5 3.5 z m 22.5,0 h -4 v -3.5 -3.5 h 4 4 v -4 -4 h 3.5 3.5 v -3.5 -3.5 h 4 4 v -4 -4 h 3.5 3.5 v 4 4 h -3.5 -3.5 v 3.5 3.5 h -4 -4 v 4 4 h -3.5 -3.5 v 3.5 3.5 z m 105.000005,0 h -4 v -3.5 -3.5 h -3.5 -3.5 v -4 -4 h -4 -4 v -3.5 -3.5 h 4 4 v 3.5 3.5 h 3.5 3.5 v 4 4 h 4 4 v 3.5 3.5 z m 22.5,-7 h -3.5 v -11.5 -11.5 h 3.5 3.5 v 11.5 11.5 z m -142.500005,-8 h -4 v -3.5 -3.5 h 4 4 v -4 -4 h 3.5 3.5 v 4 4 h -3.5 -3.5 v 3.5 3.5 z m 127.500005,0 h -3.5 v -3.5 -3.5 h -4 -4 v -4 -4 h -3.5 -3.5 v -3.5 -3.5 h 3.5 3.5 v 3.5 3.5 h 4 4 v 4 4 h 3.5 3.5 v 3.5 3.5 z m -60,-7 h -3.5 v -4 -4 h 3.5 3.5 v 4 4 z m -15,-8 h -3.5 v -3.5 -3.5 h 3.5 3.5 v -4 -4 h 4 4 v -3.5 -3.5 h 3.5 3.5 v 3.5 3.5 h -3.5 -3.5 v 4 4 h -4 -4 v 3.5 3.5 z m 30,0 h -3.5 v -3.5 -3.5 h 3.5 3.5 v 3.5 3.5 z m -90.000005,-7 h -3.5 v -4 -4 h 3.5 3.5 v 4 4 z m 142.500005,0 h -4 v -4 -4 h -3.5 -3.5 v -3.5 -3.5 h -4 -4 v -4 -4 h 4 4 v 4 4 h 3.5 3.5 v 3.5 3.5 h 4 4 v 4 4 z m -123.500005,-8 h -7.5 v -3.5 -3.5 h 7.5 7.5 v -4 -4 h 7.5 7.5 v 4 4 h -7.5 -7.5 v 3.5 3.5 z m -4,-15 h -3.5 v -3.5 -3.5 h 3.5 3.5 v 3.5 3.5 z m 94.000005,0 h -7.5 v -3.5 -3.5 h 7.5 7.5 v 3.5 3.5 z"
       id="path3155"
       style="fill:#dd9509"
       inkscape:connector-curvature="0" />
    <path
       d="m 130.16102,197.40678 h -22.5 v -4 -4 h -7.5 -7.500005 v -3.5 -3.5 h -7.5 -7.5 v -4 -4 h -4 -4 v -3.5 -3.5 h -3.5 -3.5 v -7.5 -7.5 h -4 -4 v -4 -4 h 4 4 v -3.5 -3.5 h 3.5 3.5 v 15 15 h 4 4 v 3.5 3.5 h 7.5 7.5 v 4 4 h 7.500005 7.5 v 3.5 3.5 h 22.5 22.5 v -3.5 -3.5 h 7.5 7.5 v -4 -4 h 7.5 7.5 v -3.5 -3.5 h 3.5 3.5 v -7.5 -7.5 h 4 4 v -4 -4 h 3.5 3.5 v -7.5 -7.5 h 4 4 v 7.5 7.5 h -4 -4 v 4 4 h -3.5 -3.5 v 7.5 7.5 h -4 -4 v 3.5 3.5 h -3.5 -3.5 v 4 4 h -7.5 -7.5 v 3.5 3.5 h -7.5 -7.5 v 4 4 z m 0,-15 h -7.5 v -4 -4 h 7.5 7.5 v 4 4 z m -30,-23 h -7.500005 v -15 -15 h -4 -4 v 4 4 h -3.5 -3.5 v -7.5 -7.5 h 15 15.000005 v 3.5 3.5 h 3.5 3.5 v 4 4 h -3.5 -3.5 v 11 11 z m 3.5,-22 h 4 v -4 -4 h -4 -4.000005 v 4 4 z m 56.5,22 h -7.5 v -11 -11 h -4 -4 v -4 -4 h 4 4 v -3.5 -3.5 h 15 15 v 7.5 7.5 h -4 -4 v -4 -4 h -3.5 -3.5 v 15 15 z m -4,-22 h 3.5 v -4 -4 h -3.5 -3.5 v 4 4 z"
       id="path3153"
       style="fill:#40639f"
       inkscape:connector-curvature="0" />
    <path
       d="m 130.16102,197.40678 h -22.5 v -4 -4 h -7.5 -7.500005 v -3.5 -3.5 h -7.5 -7.5 v -4 -4 h -4 -4 v -3.5 -3.5 h -3.5 -3.5 v -7.5 -7.5 h -4 -4 v -4 -4 h 4 4 v -3.5 -3.5 h 3.5 3.5 v 15 15 h 4 4 v 3.5 3.5 h 7.5 7.5 v 4 4 h 7.500005 7.5 v 3.5 3.5 h 22.5 22.5 v -3.5 -3.5 h 7.5 7.5 v -4 -4 h 7.5 7.5 v -3.5 -3.5 h 3.5 3.5 v -7.5 -7.5 h 4 4 v -4 -4 h 3.5 3.5 v -7.5 -7.5 h 4 4 v 7.5 7.5 h -4 -4 v 4 4 h -3.5 -3.5 v 7.5 7.5 h -4 -4 v 3.5 3.5 h -3.5 -3.5 v 4 4 h -7.5 -7.5 v 3.5 3.5 h -7.5 -7.5 v 4 4 z m 0,-15 h -7.5 v -4 -4 h 7.5 7.5 v 4 4 z m -30,-38 h -7.500005 v -7.5 -7.5 h -4 -4 v 4 4 h -3.5 -3.5 v -7.5 -7.5 h 15 15.000005 v 3.5 3.5 h 3.5 3.5 v 4 4 h -3.5 -3.5 v 3.5 3.5 z m 3.5,-7 h 4 v -4 -4 h -4 -4.000005 v 4 4 z m 56.5,7 h -7.5 v -3.5 -3.5 h -4 -4 v -4 -4 h 4 4 v -3.5 -3.5 h 15 15 v 7.5 7.5 h -4 -4 v -4 -4 h -3.5 -3.5 v 7.5 7.5 z m -4,-7 h 3.5 v -4 -4 h -3.5 -3.5 v 4 4 z"
       id="path3151"
       style="fill:#3a3881"
       inkscape:connector-curvature="0" />
    <path
       d="m 130.16102,197.40678 h -22.5 v -4 -4 h -7.5 -7.500005 v -3.5 -3.5 h -7.5 -7.5 v -4 -4 h -4 -4 v -3.5 -3.5 h -3.5 -3.5 v -7.5 -7.5 h -4 -4 v -4 -4 h 4 4 v -3.5 -3.5 h 3.5 3.5 v 15 15 h 4 4 v 3.5 3.5 h 7.5 7.5 v 4 4 h 7.500005 7.5 v 3.5 3.5 h 22.5 22.5 v -3.5 -3.5 h 7.5 7.5 v -4 -4 h 7.5 7.5 v -3.5 -3.5 h 3.5 3.5 v -7.5 -7.5 h 4 4 v -4 -4 h 3.5 3.5 v -7.5 -7.5 h 4 4 v 7.5 7.5 h -4 -4 v 4 4 h -3.5 -3.5 v 7.5 7.5 h -4 -4 v 3.5 3.5 h -3.5 -3.5 v 4 4 h -7.5 -7.5 v 3.5 3.5 h -7.5 -7.5 v 4 4 z m 0,-15 h -7.5 v -4 -4 h 7.5 7.5 v 4 4 z m -49.000005,-45 h -3.5 v -7.5 -7.5 h 15 15.000005 v 3.5 3.5 h 3.5 3.5 v 4 4 h -3.5 -3.5 v -4 -4 h -11.500005 -11.5 v 4 4 z m 67.500005,0 h -4 v -4 -4 h 4 4 v -3.5 -3.5 h 15 15 v 7.5 7.5 h -4 -4 v -4 -4 h -11 -11 v 4 4 z"
       id="path3149"
       style="fill:#502617"
       inkscape:connector-curvature="0" />
    <path
       d="m 130.16102,182.40678 h -7.5 v -4 -4 h 7.5 7.5 v 4 4 z m -49.000005,-45 h -3.5 v -7.5 -7.5 h 15 15.000005 v 3.5 3.5 h 3.5 3.5 v 4 4 h -3.5 -3.5 v -4 -4 h -11.500005 -11.5 v 4 4 z m 67.500005,0 h -4 v -4 -4 h 4 4 v -3.5 -3.5 h 15 15 v 7.5 7.5 h -4 -4 v -4 -4 h -11 -11 v 4 4 z"
       id="path3147"
       style="fill:#000000"
       inkscape:connector-curvature="0" />
    <rect
       y="129.40678"
       x="84.661018"
       height="30"
       width="8"
       id="rect833"
       style="opacity:1;vector-effect:none;fill:#ffffff;fill-opacity:1;stroke:none;stroke-width:1.33333337;stroke-linecap:square;stroke-linejoin:miter;stroke-miterlimit:4;stroke-dasharray:none;stroke-dashoffset:0;stroke-opacity:1" />
    <rect
       y="129.40678"
       x="99.661018"
       height="8"
       width="8.0000048"
       id="rect835"
       style="opacity:1;vector-effect:none;fill:#ffffff;fill-opacity:1;stroke:none;stroke-width:1.33333337;stroke-linecap:square;stroke-linejoin:miter;stroke-miterlimit:4;stroke-dasharray:none;stroke-dashoffset:0;stroke-opacity:1" />
    <rect
       y="129.40678"
       x="152.66103"
       height="8"
       width="7"
       id="rect837"
       style="opacity:1;vector-effect:none;fill:#ffffff;fill-opacity:1;stroke:none;stroke-width:1.33333337;stroke-linecap:square;stroke-linejoin:miter;stroke-miterlimit:4;stroke-dasharray:none;stroke-dashoffset:0;stroke-opacity:1" />
    <rect
       y="129.40678"
       x="167.66103"
       height="30"
       width="7"
       id="rect839"
       style="opacity:1;vector-effect:none;fill:#ffffff;fill-opacity:1;stroke:none;stroke-width:1.33333337;stroke-linecap:square;stroke-linejoin:miter;stroke-miterlimit:4;stroke-dasharray:none;stroke-dashoffset:0;stroke-opacity:1" />
  </g>
</svg>
